<?xml version="1.0" standalone="no"?>
<!DOCTYPE svg PUBLIC "-//W3C//DTD SVG 20010904//EN"
 "http://www.w3.org/TR/2001/REC-SVG-20010904/DTD/svg10.dtd">
<svg version="1.0" xmlns="http://www.w3.org/2000/svg"
 width="1667.000000pt" height="1667.000000pt" viewBox="0 0 1667.000000 1667.000000"
 preserveAspectRatio="xMidYMid meet">

<g transform="translate(0.000000,1667.000000) scale(0.100000,-0.100000)"
fill="#000000" stroke="none">
<path d="M6906 13448 c3 -5 10 -6 15 -3 13 9 11 12 -6 12 -8 0 -12 -4 -9 -9z"/>
<path d="M6816 13433 c-6 -14 -5 -15 5 -6 7 7 10 15 7 18 -3 3 -9 -2 -12 -12z"/>
<path d="M6843 13413 c0 -9 4 -10 14 -2 7 6 13 12 13 14 0 1 -6 2 -13 2 -8 0
-14 -6 -14 -14z"/>
<path d="M8855 13399 c-4 -6 -5 -12 -2 -15 2 -3 7 2 10 11 7 17 1 20 -8 4z"/>
<path d="M8805 13381 c-4 -7 1 -8 12 -4 15 5 16 3 6 -8 -15 -15 -17 -33 -4
-25 5 4 11 1 13 -6 3 -7 7 -5 11 6 4 11 3 15 -4 11 -6 -4 -9 0 -7 10 3 20 -17
32 -27 16z"/>
<path d="M8755 13359 c-4 -6 -5 -12 -2 -15 2 -3 7 2 10 11 7 17 1 20 -8 4z"/>
<path d="M7075 13338 c2 -23 19 -35 29 -20 3 5 -3 17 -13 26 -17 15 -18 15
-16 -6z"/>
<path d="M7046 13337 c3 -10 9 -15 12 -12 3 3 0 11 -7 18 -10 9 -11 8 -5 -6z"/>
<path d="M10273 13343 c9 -9 58 -13 53 -5 -3 5 -17 10 -31 10 -14 0 -24 -2
-22 -5z"/>
<path d="M8787 13326 c-4 -10 -1 -13 8 -9 8 3 12 9 9 14 -7 12 -11 11 -17 -5z"/>
<path d="M8743 13313 c0 -9 4 -10 14 -2 7 6 13 12 13 14 0 1 -6 2 -13 2 -8 0
-14 -6 -14 -14z"/>
<path d="M10340 13316 c0 -7 8 -20 17 -27 11 -10 14 -10 9 -1 -4 6 -3 12 3 12
6 0 8 7 5 15 -8 19 -34 20 -34 1z"/>
<path d="M6984 13293 c14 -18 23 -20 37 -12 11 5 19 13 19 16 0 3 -3 3 -7 0
-3 -4 -12 -2 -20 5 -11 9 -12 7 -7 -8 7 -18 6 -18 -17 1 l-24 20 19 -22z"/>
<path d="M7125 13300 c-3 -5 -4 -13 -2 -17 3 -5 -15 -6 -40 -4 -25 2 -50 -2
-56 -8 -8 -8 -8 -11 2 -11 7 0 9 -5 6 -10 -12 -19 60 -34 82 -17 7 5 10 14 6
20 -4 6 -1 7 7 2 10 -6 11 -2 6 19 -5 20 -4 26 5 20 8 -4 9 -3 5 4 -9 15 -13
15 -21 2z"/>
<path d="M7441 13296 c-1 -15 -8 -17 -46 -14 -27 2 -44 -1 -41 -7 2 -5 -1 -18
-5 -27 -6 -10 -5 -19 1 -23 7 -4 6 -13 -1 -27 -6 -11 -9 -31 -6 -44 2 -13 0
-21 -4 -18 -5 3 -9 1 -9 -5 0 -6 -7 -8 -15 -5 -8 4 -13 10 -10 14 8 12 -33 43
-46 34 -8 -4 -10 -3 -5 5 4 6 2 18 -4 26 -14 17 -35 9 -22 -8 18 -23 21 -45 7
-43 -8 1 -18 5 -21 9 -10 10 -11 57 -2 51 4 -3 8 -1 8 4 0 13 -28 36 -48 39
-23 3 -64 -37 -57 -57 4 -11 2 -11 -9 3 -7 9 -16 17 -20 17 -13 0 17 -45 55
-83 21 -20 40 -45 43 -55 3 -9 17 -29 31 -44 14 -15 25 -29 25 -32 0 -3 18
-34 41 -68 48 -74 118 -218 147 -304 65 -190 87 -334 79 -534 -4 -127 -10
-164 -45 -300 -22 -85 -73 -256 -112 -380 -121 -382 -148 -512 -137 -670 8
-109 40 -268 78 -393 30 -99 113 -304 130 -321 12 -13 86 22 110 52 10 14 19
21 19 15 0 -24 -32 -128 -51 -164 l-20 -41 35 -131 c30 -112 66 -274 66 -299
0 -5 -26 -8 -57 -8 -72 0 -172 35 -259 89 -51 32 -75 41 -110 41 -88 0 -144
59 -124 130 8 29 6 37 -24 74 -18 22 -51 68 -74 102 -40 60 -41 61 -86 60 -48
-1 -84 19 -120 68 -19 24 -21 43 -22 154 0 159 1 152 -29 196 -23 34 -23 36
-4 25 11 -6 23 -9 25 -6 2 2 -2 33 -10 68 -8 35 -19 125 -25 199 -7 74 -14
149 -17 166 l-6 31 -39 -13 c-83 -29 -153 45 -119 126 13 31 82 80 113 80 33
0 17 28 -28 50 -35 17 -47 29 -54 56 -11 39 0 87 28 123 18 23 18 26 -10 133
l-27 110 34 30 c43 38 88 131 109 228 19 88 33 380 18 380 -14 0 -33 46 -33
78 0 15 9 45 20 67 25 48 26 133 5 455 -8 124 -15 228 -15 233 0 4 -4 7 -9 7
-10 0 -8 -64 3 -98 5 -14 2 -34 -8 -53 -11 -23 -15 -68 -17 -179 -1 -138 1
-151 20 -176 45 -57 42 -119 -7 -149 l-33 -20 6 -78 c4 -52 2 -85 -7 -100 -6
-12 -17 -67 -25 -123 -15 -117 -53 -255 -84 -309 l-22 -37 -22 54 c-82 200
-148 276 -490 558 -82 68 -156 132 -163 142 -7 10 -20 18 -28 18 -20 0 -74 54
-74 73 0 8 -25 52 -56 98 -31 46 -81 134 -110 194 -30 61 -59 117 -66 125 -7
8 -12 16 -10 17 8 10 -1 34 -17 43 -17 9 -19 7 -14 -12 2 -13 5 -31 5 -41 -1
-9 2 -16 6 -13 4 2 8 -12 9 -31 3 -54 60 -219 109 -313 66 -129 131 -208 325
-400 199 -197 263 -271 333 -383 91 -146 186 -384 207 -518 6 -41 23 -96 37
-123 34 -66 36 -145 4 -179 -21 -23 -22 -32 -29 -298 -7 -314 -8 -305 83 -522
63 -151 73 -196 49 -220 -27 -27 -85 -20 -237 29 -248 79 -462 127 -664 149
l-62 7 -4 136 c-8 230 -63 368 -279 712 -67 107 -139 227 -160 265 -22 39 -39
67 -39 64 0 -14 61 -152 155 -349 137 -288 175 -394 195 -557 12 -90 -3 -242
-25 -258 -8 -7 -16 -43 -20 -93 -7 -77 -6 -82 12 -82 36 0 328 -78 468 -125
143 -48 298 -109 417 -164 36 -17 70 -31 75 -31 5 0 20 12 34 26 53 57 111 69
156 30 37 -32 39 -93 3 -131 -26 -28 -25 -30 43 -70 l27 -16 0 38 c0 51 42
134 79 156 40 23 64 21 100 -9 62 -52 29 -148 -68 -193 -28 -14 -51 -28 -51
-32 0 -15 184 -121 363 -209 100 -49 276 -127 391 -173 l210 -83 55 -220 c31
-121 64 -231 73 -245 75 -104 90 -130 103 -173 17 -56 19 -113 6 -148 -5 -15
-3 -35 6 -57 l14 -34 34 33 c19 19 40 50 47 69 l12 36 7 -40 c11 -58 11 -215
-1 -254 -8 -30 -3 -45 55 -162 36 -71 65 -131 65 -134 0 -3 -44 31 -97 74
l-97 79 -38 -20 c-89 -47 -189 31 -174 136 6 38 4 43 -24 59 l-30 18 0 -33 c0
-100 -131 -141 -199 -62 -41 46 -52 94 -45 186 l7 77 -114 74 c-157 103 -560
333 -759 433 -259 129 -482 217 -748 295 -85 25 -110 28 -129 20 -45 -21 -92
-13 -125 19 -33 34 -106 54 -157 44 -38 -8 -86 18 -108 59 -14 25 -17 52 -15
126 3 115 -17 165 -102 258 -52 57 -59 61 -105 65 -31 2 -47 -1 -43 -7 3 -5
25 -35 48 -65 78 -103 134 -228 134 -298 0 -13 14 -40 30 -59 42 -48 42 -108
0 -157 -35 -39 -73 -51 -135 -41 -44 6 -65 18 -158 92 -101 80 -187 85 -512
28 -213 -38 -323 -31 -422 27 l-36 22 6 -25 c4 -13 7 -41 7 -61 0 -35 3 -38
63 -67 127 -62 144 -64 572 -66 319 -1 407 -5 484 -19 82 -14 96 -15 110 -2
42 38 110 27 139 -24 20 -36 59 -46 106 -29 41 15 86 0 110 -36 11 -16 45 -33
113 -55 54 -18 149 -53 212 -77 79 -30 117 -40 121 -32 5 7 12 4 21 -9 8 -11
83 -51 166 -90 269 -123 483 -248 639 -372 42 -33 102 -78 133 -99 l56 -38 50
13 c98 26 229 10 281 -34 68 -57 71 -157 6 -225 l-26 -27 34 -35 c24 -25 43
-35 64 -35 56 -1 96 -50 96 -117 0 -26 8 -48 25 -68 21 -25 24 -27 23 -10 -5
72 32 115 98 115 87 0 129 -72 118 -204 -6 -72 -4 -87 15 -124 l22 -43 -53 28
c-29 15 -57 29 -61 31 -4 2 25 -43 66 -100 129 -182 238 -348 227 -348 -33 0
-224 117 -360 219 -104 80 -98 78 -115 37 -18 -42 -19 -89 -4 -119 5 -12 -14
4 -44 35 -66 69 -106 147 -114 222 -5 48 -10 60 -36 78 l-30 21 -18 -24 -19
-24 0 25 c-1 55 -15 72 -154 179 -192 148 -329 243 -492 341 l-136 82 -47 -25
c-25 -14 -63 -28 -83 -32 -44 -8 -104 9 -118 35 -15 28 -12 83 6 108 14 21 14
23 -13 33 -21 8 -36 8 -58 -1 -60 -25 -89 -24 -123 5 -18 15 -32 35 -32 45 0
13 -12 21 -47 29 -108 23 -112 23 -139 2 -44 -35 -112 -23 -158 28 -11 12 -27
21 -37 21 -15 0 -17 -6 -12 -33 4 -26 0 -40 -18 -61 -34 -39 -90 -45 -157 -16
-38 17 -64 21 -95 17 l-42 -5 58 54 58 54 -103 1 c-57 1 -206 3 -333 4 -126 0
-255 5 -286 9 -55 8 -56 8 -68 -22 -21 -50 -75 -95 -123 -102 l-43 -6 75 -17
c41 -9 107 -22 147 -28 l72 -12 -26 -36 c-37 -50 -104 -120 -128 -134 -11 -6
-49 -21 -85 -33 l-65 -23 0 -51 0 -51 40 6 c22 4 74 17 115 31 84 27 130 61
230 169 116 126 92 118 335 111 116 -3 252 -12 303 -21 l94 -15 36 40 c81 90
192 80 192 -17 0 -16 -7 -39 -16 -51 -14 -20 -14 -23 3 -29 10 -4 55 -21 100
-39 l82 -32 -10 26 c-14 37 6 89 43 108 62 32 135 -1 186 -85 32 -52 79 -91
108 -91 12 0 15 -3 8 -10 -6 -6 -49 -13 -97 -18 l-87 -7 81 -48 c184 -110 382
-264 693 -538 301 -265 360 -314 497 -413 289 -208 359 -265 460 -365 202
-203 306 -410 361 -721 22 -126 16 -563 -11 -815 -28 -263 -81 -670 -126 -970
-30 -199 -235 -1169 -306 -1447 -10 -42 -19 -78 -19 -81 0 -10 809 -18 1218
-11 l449 7 -13 71 c-77 403 -254 1669 -293 2094 -48 520 -53 1142 -11 1417 62
411 187 700 423 982 156 186 331 319 620 472 113 60 118 64 97 78 -11 8 -42
18 -68 22 l-47 7 45 33 c70 52 109 65 183 62 34 -1 77 -42 77 -74 0 -39 105
-128 167 -141 18 -4 42 -15 55 -25 42 -32 116 -51 174 -45 44 6 59 3 90 -15
24 -14 67 -26 118 -32 87 -10 357 -10 316 1 l-24 6 35 26 c19 15 50 34 69 42
35 15 34 15 -55 16 -114 1 -262 15 -388 36 -94 17 -101 16 -148 -1 -63 -22
-142 -17 -171 12 -12 12 -20 35 -21 59 -2 33 -10 46 -49 83 -27 24 -48 47 -48
52 0 5 18 19 40 31 36 21 40 27 40 64 0 57 44 116 112 150 82 41 109 64 128
106 22 50 30 33 30 -68 0 -41 2 -74 5 -74 2 0 38 21 80 46 49 30 81 57 92 77
19 38 30 47 62 47 30 0 109 60 185 139 44 47 56 66 56 91 0 33 45 90 72 90 20
0 58 66 58 99 0 21 9 36 31 53 17 13 67 61 112 107 100 102 195 171 289 207
45 18 74 36 80 49 16 35 61 55 123 55 31 0 66 -5 77 -11 14 -8 127 -12 345
-13 177 0 323 0 323 1 0 8 -86 37 -157 54 -76 18 -85 18 -112 4 -43 -22 -78
-19 -128 11 l-44 25 -142 -10 c-226 -18 -470 -81 -487 -127 -16 -42 -51 -64
-101 -64 -32 0 -55 -7 -75 -22 -93 -70 -157 -136 -244 -248 -205 -264 -421
-416 -800 -561 -74 -28 -146 -55 -158 -60 -23 -9 -22 -10 24 -42 58 -39 83
-71 90 -119 16 -94 -120 -122 -168 -35 -6 12 -15 48 -19 81 -8 69 -18 82 -48
67 -20 -11 -20 -13 -5 -36 17 -25 13 -67 -8 -92 -30 -36 -121 -23 -157 23
l-19 24 -133 -66 c-264 -130 -525 -232 -777 -304 -63 -17 -116 -30 -118 -27
-2 2 10 24 28 48 59 81 188 272 185 275 -1 1 -36 -7 -77 -18 -132 -34 -269
-11 -314 54 -19 27 -21 87 -4 123 25 55 116 72 187 36 20 -11 58 -44 84 -74
46 -54 97 -87 134 -87 41 0 448 696 593 1015 221 487 324 669 453 803 88 90
146 129 262 175 89 36 90 36 101 80 15 59 39 92 81 112 69 33 149 4 180 -66
13 -29 23 -39 40 -39 21 0 23 3 18 33 -9 48 23 93 76 107 36 10 53 8 120 -11
74 -21 80 -22 119 -6 l41 16 -31 -39 c-16 -21 -46 -52 -65 -69 l-36 -31 163 0
c194 0 238 6 238 30 0 29 39 69 74 76 47 8 91 -17 106 -60 8 -26 15 -33 30
-29 15 4 17 9 10 23 -15 28 4 65 39 80 25 10 40 10 76 0 24 -7 60 -10 79 -8
20 2 36 1 36 -2 0 -3 -16 -21 -35 -40 -19 -18 -33 -35 -31 -37 5 -6 225 27
350 52 65 14 166 39 223 56 l104 32 -25 26 c-13 14 -29 36 -35 48 -16 31 -14
95 5 121 18 26 18 26 -36 7 -24 -8 -45 -14 -46 -12 -2 2 1 19 6 38 20 69 30
213 21 301 -8 80 -11 90 -40 117 -26 24 -31 36 -31 76 0 25 4 55 10 65 14 27
3 48 -26 46 -14 0 -22 -6 -20 -13 3 -6 10 -57 17 -114 21 -181 -6 -357 -74
-484 -26 -48 -38 -61 -66 -68 -18 -4 -44 -15 -56 -23 -44 -29 -84 -34 -132
-18 -26 9 -60 13 -81 10 -54 -8 -356 -15 -857 -21 -242 -3 -459 -8 -483 -11
-40 -6 -42 -8 -49 -47 -18 -112 -152 -127 -178 -21 -11 46 -35 49 -35 4 0 -57
-55 -76 -124 -43 l-35 16 -53 -41 c-59 -45 -185 -173 -236 -238 l-32 -41 21
-19 c28 -25 49 -79 49 -125 0 -29 -8 -47 -29 -71 -25 -28 -36 -33 -76 -33 -39
0 -51 5 -70 28 -23 26 -25 26 -35 8 -5 -11 -10 -33 -10 -50 0 -21 -9 -36 -29
-53 -21 -16 -55 -78 -113 -203 -143 -306 -316 -585 -599 -964 l-33 -44 49 5
49 6 -43 -37 c-24 -20 -69 -52 -101 -71 -42 -26 -81 -65 -145 -145 -76 -94
-88 -115 -86 -144 3 -49 26 -99 63 -132 l31 -30 -29 7 c-167 39 -282 110 -330
205 -29 59 -30 94 -4 137 43 69 136 78 196 18 l32 -32 5 35 c3 29 -2 43 -25
69 -59 69 -22 176 66 191 24 4 44 15 54 29 15 22 14 23 -10 17 -35 -9 -109 25
-136 62 -33 47 -37 94 -12 149 30 69 62 99 163 151 93 48 151 103 162 155 11
49 18 24 24 -94 l6 -113 69 134 c58 114 131 283 123 285 -34 10 -128 71 -149
98 -63 77 -37 168 49 168 65 -1 113 -60 113 -140 0 -22 4 -40 9 -40 7 0 51
151 51 175 0 3 -16 5 -35 5 -46 0 -85 37 -85 80 0 49 38 80 99 80 54 0 55 1
65 45 7 28 7 29 -11 12 -63 -56 -173 -3 -173 83 0 52 54 112 136 153 53 27
104 77 104 103 0 8 5 14 10 14 6 0 10 -19 10 -42 1 -38 7 -27 51 96 l50 138
-25 27 c-14 15 -30 41 -36 58 -26 74 41 170 142 203 51 17 55 22 97 97 73 133
149 240 229 324 l77 81 49 -32 c71 -48 168 -86 286 -111 148 -32 447 -32 630
-1 174 30 468 120 441 136 -6 4 -11 23 -11 42 0 41 -23 43 -28 3 -9 -58 -67
-78 -104 -35 -21 22 -23 22 -67 9 -78 -24 -261 -51 -386 -58 -220 -13 -469 26
-603 94 -33 17 -63 35 -67 40 -7 12 63 65 191 145 86 55 92 60 98 99 5 28 17
50 42 73 39 38 84 49 155 41 46 -6 52 -4 141 55 129 85 219 160 328 275 273
289 439 552 556 883 41 115 42 127 12 106 -12 -9 -33 -16 -45 -16 -13 0 -23
-6 -23 -14 0 -25 -116 -246 -180 -345 -61 -94 -216 -291 -229 -291 -4 0 -12
46 -19 103 -15 128 -60 305 -110 439 l-39 103 -47 -2 c-26 -1 -50 -4 -53 -7
-3 -2 6 -40 20 -83 62 -188 86 -323 94 -523 3 -85 10 -158 15 -161 5 -3 -11
-24 -36 -47 -31 -28 -54 -63 -74 -110 -58 -139 -131 -224 -230 -270 -62 -28
-118 -26 -162 6 l-26 20 -112 -62 c-107 -59 -111 -62 -118 -100 -9 -56 -51
-96 -101 -96 -21 0 -48 6 -59 14 -19 13 -25 11 -70 -24 -27 -22 -58 -44 -69
-49 -38 -17 -130 -94 -228 -191 l-99 -98 20 -38 c65 -131 48 -305 -33 -342
-62 -29 -128 -8 -160 50 l-21 38 -22 -45 c-16 -33 -22 -64 -22 -113 0 -81 -14
-111 -62 -137 -35 -18 -42 -31 -97 -170 -63 -160 -111 -303 -161 -480 -63
-221 -193 -602 -235 -690 -63 -129 -150 -236 -220 -270 -102 -50 -208 -21
-323 89 -102 98 -176 220 -241 400 l-36 99 -55 1 c-132 2 -207 123 -150 241
11 23 31 52 44 64 l23 22 -34 91 c-98 261 -111 485 -44 752 41 160 90 286 193
496 88 178 95 188 175 267 92 91 186 145 292 166 67 14 98 32 36 22 -119 -20
-220 -62 -292 -122 -24 -19 -43 -31 -43 -28 0 4 40 75 89 158 148 253 210 396
285 658 52 179 68 271 45 252 -14 -12 -47 -17 -85 -15 -28 3 -71 47 -79 82
-16 72 62 189 159 241 l46 24 0 85 0 85 -39 16 c-48 21 -99 88 -108 143 -7 47
-16 31 -27 -52 -7 -51 -6 -53 34 -91 37 -35 40 -42 40 -92 0 -68 -27 -114 -78
-136 -20 -8 -38 -16 -40 -17 -1 -2 -14 -72 -27 -157 -30 -181 -67 -353 -96
-441 -28 -83 -95 -223 -159 -328 -60 -98 -62 -124 -14 -225 71 -152 21 -290
-105 -290 -58 0 -98 24 -118 73 l-15 36 -19 -32 c-19 -29 -19 -33 -5 -61 20
-38 20 -103 2 -140 -19 -35 -60 -63 -105 -70 -34 -6 -36 -9 -83 -125 -26 -66
-56 -128 -65 -138 -62 -69 -142 -48 -196 50 -46 85 -60 168 -54 327 7 185 46
366 137 648 38 120 77 259 86 310 23 129 24 412 1 533 -28 151 -103 339 -202
504 -29 48 -34 66 -39 145 -3 50 -5 120 -5 157 0 37 -5 69 -11 73 -8 5 -8 11
0 20 7 8 7 20 1 36 -8 19 -10 20 -10 5z m-247 -57 c3 -3 -6 -6 -19 -7 -14 -1
-25 3 -25 8 0 10 35 9 44 -1z m90 -77 c3 -5 -1 -9 -9 -9 -8 0 -12 4 -9 9 3 4
7 8 9 8 2 0 6 -4 9 -8z m-116 -37 c-3 -3 -9 2 -12 12 -6 14 -5 15 5 6 7 -7 10
-15 7 -18z m27 16 c3 -5 2 -12 -3 -15 -5 -3 -9 1 -9 9 0 17 3 19 12 6z m125
-42 c0 -5 -4 -9 -8 -9 -5 0 -9 7 -9 15 0 8 4 12 9 9 4 -3 8 -9 8 -15z m-59
-76 c13 -16 12 -17 -3 -4 -10 7 -18 15 -18 17 0 8 8 3 21 -13z m-522 -3117
c77 -40 62 -148 -24 -176 -44 -14 -84 -6 -155 32 -44 24 -64 29 -98 25 -51 -5
-47 1 32 62 86 67 182 89 245 57z m1048 -146 c96 -116 139 -239 119 -344 -21
-111 -161 -161 -247 -89 -63 53 -88 168 -55 253 8 19 24 60 36 90 27 68 29
163 5 210 l-18 34 53 -44 c30 -25 78 -74 107 -110z m629 -1231 c38 -12 86 -30
106 -40 87 -45 148 -124 148 -195 0 -51 -53 -104 -104 -104 -84 0 -133 57
-147 174 -12 93 -22 123 -57 159 -31 32 -32 32 54 6z m-152 -50 c91 -25 125
-113 70 -178 -55 -65 -138 -50 -223 41 -60 64 -96 88 -133 88 -22 1 -22 1 4
15 72 40 205 55 282 34z m171 -293 c70 -30 83 -116 25 -171 -45 -43 -111 -40
-207 10 -61 32 -79 37 -123 34 l-51 -4 28 23 c131 108 241 144 328 108z"/>
<path d="M8770 13287 c0 -8 -9 -22 -20 -32 -11 -10 -20 -13 -20 -7 0 6 8 15
17 21 10 5 16 12 13 14 -3 3 -15 -3 -28 -13 -20 -16 -21 -22 -12 -41 7 -12 8
-19 2 -15 -8 4 -33 -38 -38 -64 0 -3 -6 -18 -12 -33 -15 -35 -15 -40 -2 -32 6
3 10 2 10 -3 0 -5 11 -14 25 -20 20 -9 26 -8 33 4 8 15 10 15 15 0 4 -10 3
-15 -3 -11 -15 9 -12 -11 4 -24 12 -10 15 -3 18 39 2 38 0 49 -10 45 -7 -3 -4
7 7 21 16 21 18 30 10 40 -9 11 -8 14 1 14 7 0 10 7 6 16 -3 8 -2 12 4 9 6 -3
11 0 12 7 5 41 4 68 -1 62 -3 -3 -6 -16 -6 -27 0 -12 -6 -21 -12 -19 -7 1 -13
-2 -13 -6 0 -5 -7 -9 -15 -9 -13 0 -12 4 3 21 23 26 35 56 22 56 -6 0 -10 -6
-10 -13z m-69 -130 c-10 -9 -11 -8 -5 6 3 10 9 15 12 12 3 -3 0 -11 -7 -18z
m62 -8 c5 -3 2 -9 -5 -12 -9 -3 -14 3 -15 15 -1 11 1 16 5 12 4 -5 11 -12 15
-15z m-23 -50 c0 -3 -8 -13 -17 -20 -11 -10 -14 -10 -9 -1 4 6 2 12 -3 12 -6
0 -11 5 -11 11 0 8 5 8 15 -1 9 -8 15 -9 15 -2 0 6 -4 14 -10 17 -5 3 -10 12
-10 18 1 12 30 -21 30 -34z m-53 9 c-3 -8 -6 -5 -6 6 -1 11 2 17 5 13 3 -3 4
-12 1 -19z"/>
<path d="M10389 13279 c-11 -8 -9 -9 6 -7 11 2 19 -2 18 -7 -1 -6 9 -12 23
-13 13 -1 24 3 24 8 0 5 -7 7 -15 3 -10 -3 -15 -1 -13 7 4 15 -25 21 -43 9z"/>
<path d="M10465 13239 c-4 -5 -12 -7 -18 -3 -7 3 12 -16 42 -43 30 -26 88 -83
130 -125 41 -42 79 -74 84 -71 6 3 7 2 4 -4 -8 -13 22 -55 34 -47 5 3 8 1 7
-4 -2 -5 18 -39 44 -75 26 -37 62 -91 79 -122 22 -38 37 -55 51 -55 34 0 87
-39 114 -85 13 -24 32 -49 40 -56 16 -13 4 9 -63 123 -28 48 -38 57 -61 56
-65 -2 -108 56 -89 118 12 41 0 59 -46 68 -35 7 -84 65 -90 107 -2 13 -10 25
-17 27 -8 3 -10 0 -5 -8 5 -8 4 -11 -3 -6 -6 4 -9 12 -6 19 2 7 -9 26 -25 41
-24 23 -33 27 -44 18 -11 -9 -22 -4 -52 23 -21 18 -40 41 -41 50 -3 20 -14 33
-14 17 0 -7 -7 -12 -15 -12 -8 0 -15 5 -15 11 0 5 6 7 13 3 7 -4 9 -3 4 2 -5
5 -13 10 -18 10 -5 1 -14 2 -20 3 -5 0 -8 5 -4 11 3 5 12 7 20 3 8 -3 15 -3
15 0 0 10 -30 16 -35 6z m215 -165 c0 -2 -9 0 -20 6 -11 6 -20 13 -20 16 0 2
9 0 20 -6 11 -6 20 -13 20 -16z"/>
<path d="M11818 13233 c0 -5 -2 -19 -4 -33 -2 -14 -6 -40 -9 -57 -5 -25 -3
-33 8 -33 12 0 15 14 14 65 -2 59 -4 78 -9 58z"/>
<path d="M10544 13188 c1 -8 12 -24 24 -36 24 -24 38 -29 26 -10 -4 7 -3 8 5
4 6 -4 9 -11 6 -16 -3 -5 -1 -11 4 -14 12 -8 22 7 13 20 -15 21 -80 65 -78 52z"/>
<path d="M7215 13181 c-3 -5 -2 -12 3 -15 5 -3 9 1 9 9 0 17 -3 19 -12 6z"/>
<path d="M11810 13090 c8 -5 10 -10 4 -10 -7 0 -14 -31 -18 -77 -4 -43 -14
-133 -22 -199 -15 -119 -15 -122 5 -155 12 -19 22 -45 22 -59 3 -51 18 68 24
188 5 95 3 127 -7 140 -9 11 -10 14 0 8 9 -5 12 14 12 83 0 80 -2 91 -17 91
-15 0 -16 -2 -3 -10z"/>
<path d="M13188 11463 c7 -3 16 -2 19 1 4 3 -2 6 -13 5 -11 0 -14 -3 -6 -6z"/>
<path d="M13063 11433 c-46 -15 -83 -31 -83 -36 0 -11 5 -9 115 32 98 37 79
39 -32 4z"/>
<path d="M14150 11336 c-108 -40 -187 -91 -265 -170 -44 -44 -92 -97 -107
-116 -26 -35 -27 -36 -11 -83 l15 -47 56 78 c134 188 211 265 327 327 51 27
43 32 -15 11z"/>
<path d="M12769 11315 c-23 -12 -47 -45 -34 -45 17 0 75 36 75 47 0 16 -8 16
-41 -2z"/>
<path d="M12520 11197 c-58 -27 -141 -65 -185 -84 -50 -21 -97 -50 -125 -77
-71 -69 -132 -93 -191 -76 -34 10 -94 -8 -138 -42 -13 -10 -33 -18 -45 -18
-11 0 -62 -14 -113 -32 l-91 -33 -4 -46 c-3 -43 -1 -46 17 -39 128 49 247 106
256 122 14 26 84 57 156 68 40 7 133 48 330 145 150 75 273 140 273 145 0 23
-46 12 -140 -33z"/>
<path d="M8893 11183 c9 -2 23 -2 30 0 6 3 -1 5 -18 5 -16 0 -22 -2 -12 -5z"/>
<path d="M8948 11173 c7 -3 16 -2 19 1 4 3 -2 6 -13 5 -11 0 -14 -3 -6 -6z"/>
<path d="M12482 10968 c12 -37 28 -59 28 -40 0 14 -28 72 -35 72 -2 0 1 -15 7
-32z"/>
<path d="M13474 10674 c-118 -138 -294 -296 -440 -395 -31 -22 -67 -50 -80
-64 -13 -14 -33 -25 -44 -25 -12 0 -35 -8 -50 -17 l-29 -16 52 -24 c29 -14 73
-47 100 -75 26 -28 50 -48 54 -45 3 4 -8 21 -26 39 -68 69 -21 177 77 178 49
0 74 -11 115 -48 l27 -26 36 35 c47 44 170 190 216 256 33 46 168 260 168 266
0 1 -17 2 -37 2 -21 1 -50 4 -64 9 -24 7 -32 1 -75 -50z"/>
<path d="M5074 10133 l-30 -4 15 -59 15 -58 61 -4 c42 -2 69 2 90 13 17 9 47
22 68 29 36 11 97 62 97 81 0 9 -250 10 -316 2z"/>
<path d="M4910 10109 c-52 -11 -96 -22 -98 -24 -3 -2 4 -25 14 -50 18 -45 20
-46 53 -40 54 10 114 62 134 118 8 20 15 20 -103 -4z"/>
<path d="M4467 9880 c-51 -49 -122 -124 -157 -167 l-64 -78 73 69 c70 65 230
178 271 191 18 6 18 7 2 40 -9 19 -20 35 -24 35 -4 0 -49 -40 -101 -90z"/>
<path d="M4797 9825 c18 -22 66 -76 107 -120 l75 -80 0 35 c0 32 -8 41 -80
100 -135 109 -140 112 -102 65z"/>
<path d="M3600 9525 c0 -22 199 -339 218 -348 4 -2 21 -1 39 2 l32 6 -76 85
c-41 47 -104 124 -140 173 -61 82 -73 95 -73 82z"/>
<path d="M3731 8664 c-6 -21 -11 -47 -11 -57 0 -68 197 -318 260 -331 16 -3
57 -30 90 -61 33 -30 64 -55 69 -55 4 0 -3 21 -16 48 -20 37 -24 57 -20 97 l5
50 -86 54 c-111 71 -211 165 -249 237 l-31 58 -11 -40z"/>
<path d="M4350 8230 c0 -52 -49 -100 -103 -100 -37 0 -3 -17 115 -55 116 -38
138 -42 97 -20 -39 21 -63 78 -55 132 5 40 4 44 -20 53 -34 13 -34 13 -34 -10z"/>
<path d="M3535 7766 c-59 -14 -155 -51 -155 -60 0 -2 26 5 58 17 105 39 314
27 493 -29 12 -3 18 3 21 25 l4 29 -75 12 c-125 19 -279 21 -346 6z"/>
<path d="M4220 7723 c-33 -4 -107 -57 -92 -66 4 -3 42 -8 86 -12 l78 -8 -7 24
c-13 40 -24 69 -27 67 -2 0 -19 -3 -38 -5z"/>
<path d="M12285 7404 c-269 -25 -257 -22 -298 -62 -46 -45 -101 -51 -140 -14
-31 29 -88 29 -135 0 -30 -18 -39 -20 -66 -10 -18 7 -59 11 -92 11 -59 -2 -59
-2 -14 -8 55 -8 69 -16 80 -47 5 -13 18 -24 28 -24 10 0 139 20 288 44 330 55
438 68 575 70 98 1 105 2 95 18 -13 22 -66 33 -104 23 -32 -9 -94 -10 -142 -3
-19 3 -53 4 -75 2z"/>
<path d="M12767 7353 c-4 -5 20 -18 51 -28 31 -9 74 -26 94 -36 40 -21 58 -24
58 -10 0 10 -126 69 -167 77 -17 3 -33 2 -36 -3z"/>
<path d="M8335 810 c-3 -5 -4 -19 0 -29 4 -14 -1 -20 -20 -25 -38 -10 -31 -27
8 -18 17 3 44 7 60 7 33 0 36 12 4 20 -16 4 -23 13 -23 27 1 23 -18 35 -29 18z"/>
<path d="M8337 729 c-60 -9 -106 -36 -134 -77 -26 -40 -40 -109 -24 -125 16
-16 224 -16 276 0 22 7 55 22 73 33 l34 21 -30 52 c-47 84 -100 110 -195 96z
m0 -85 c15 -24 15 -29 2 -53 -11 -20 -22 -26 -49 -26 -27 0 -38 6 -49 26 -13
24 -13 29 2 53 12 18 26 26 47 26 21 0 35 -8 47 -26z m152 7 c15 -27 -9 -56
-37 -47 -21 7 -31 44 -15 59 13 13 42 7 52 -12z"/>
<path d="M8563 711 c-6 -25 -11 -26 -34 -5 -27 24 -45 7 -21 -20 11 -11 25
-31 31 -43 17 -34 34 -29 26 8 -5 22 -2 36 10 49 11 13 13 20 5 25 -7 4 -14
-2 -17 -14z"/>
<path d="M6023 713 c-8 -3 -13 -23 -13 -53 l0 -48 -30 15 c-60 30 -118 -4
-127 -76 -7 -50 1 -80 27 -109 25 -27 90 -31 111 -6 11 14 13 14 21 0 5 -9 18
-16 28 -16 19 0 20 8 20 144 0 145 -4 160 -37 149z m-32 -139 c20 -24 16 -84
-6 -100 -23 -17 -36 -18 -59 -1 -22 16 -26 78 -7 101 17 21 55 21 72 0z"/>
<path d="M7463 713 c-8 -3 -13 -24 -13 -54 l0 -50 -31 16 c-65 34 -129 -11
-129 -92 0 -49 21 -97 45 -107 28 -10 70 -7 90 8 17 12 21 12 31 -2 6 -9 18
-13 28 -9 14 5 16 26 16 146 0 140 -4 155 -37 144z m-35 -135 c30 -30 5 -118
-34 -118 -22 0 -54 37 -54 63 0 51 56 87 88 55z"/>
<path d="M7633 713 c-10 -3 -13 -43 -13 -149 0 -136 1 -144 19 -144 11 0 23 5
26 10 4 7 12 7 25 0 10 -5 34 -10 53 -10 48 0 79 36 84 97 8 90 -56 145 -127
110 l-30 -15 0 43 c0 43 -15 66 -37 58z m125 -135 c17 -17 15 -84 -4 -102 -8
-9 -24 -16 -34 -16 -22 0 -50 36 -50 65 0 50 57 84 88 53z"/>
<path d="M8718 709 c-10 -5 -20 -25 -24 -43 -4 -23 -13 -36 -27 -40 l-22 -6
22 -19 c19 -16 23 -30 25 -97 3 -77 4 -79 28 -79 24 0 25 2 28 81 2 72 5 83
22 87 26 7 26 37 0 37 -34 0 -26 39 10 47 17 3 30 11 30 18 0 24 -60 33 -92
14z"/>
<path d="M9740 700 c-6 -12 -9 -71 -8 -147 l3 -128 25 0 c22 0 25 5 28 37 5
62 25 65 60 8 31 -50 57 -63 68 -35 4 8 -8 38 -26 65 l-33 51 22 23 c11 12 21
30 21 39 0 33 -23 28 -66 -14 l-44 -43 0 70 c0 85 -24 122 -50 74z"/>
<path d="M6524 699 c-3 -6 1 -18 10 -27 15 -15 17 -15 32 0 19 19 11 38 -16
38 -10 0 -22 -5 -26 -11z"/>
<path d="M9642 688 c2 -15 10 -23 23 -23 13 0 21 8 23 23 3 18 -1 22 -23 22
-22 0 -26 -4 -23 -22z"/>
<path d="M8161 658 c-12 -20 -14 -20 -26 -5 -7 9 -17 17 -24 17 -19 0 -12 -16
12 -27 19 -9 23 -17 19 -42 -6 -44 14 -39 29 7 6 20 15 42 20 48 8 10 2 24
-10 24 -4 0 -12 -10 -20 -22z"/>
<path d="M6143 626 c-40 -18 -53 -43 -53 -101 0 -38 5 -52 29 -76 25 -24 37
-29 80 -29 38 0 56 5 71 20 44 44 12 67 -39 29 -23 -17 -33 -19 -50 -10 -11 6
-25 20 -31 31 -10 19 -7 20 49 20 78 0 91 6 91 41 0 64 -80 105 -147 75z m79
-43 c31 -28 22 -43 -27 -43 -38 0 -45 3 -45 20 0 18 23 39 44 40 5 0 18 -7 28
-17z"/>
<path d="M6360 633 c-28 -11 -50 -36 -50 -58 0 -29 26 -51 77 -64 48 -13 60
-26 43 -46 -18 -22 -40 -18 -71 11 -43 41 -71 6 -29 -36 14 -14 33 -20 68 -20
63 0 92 21 92 65 0 38 -23 56 -88 70 -23 5 -32 12 -30 23 4 22 41 27 58 7 18
-21 50 -19 50 4 0 10 -6 23 -13 29 -16 14 -87 23 -107 15z"/>
<path d="M6531 626 c-8 -9 -11 -47 -9 -107 3 -93 3 -94 28 -94 25 0 25 2 28
87 3 108 -15 153 -47 114z"/>
<path d="M6651 626 c-48 -27 -63 -87 -37 -151 23 -54 78 -71 124 -39 20 14 22
14 22 -4 0 -49 -61 -73 -99 -38 -24 22 -51 20 -51 -3 0 -32 38 -51 100 -51 46
0 61 4 78 23 20 21 22 34 22 145 0 124 -8 149 -37 119 -13 -13 -19 -13 -42 -1
-32 17 -49 17 -80 0z m103 -70 c21 -57 -28 -111 -73 -80 -15 11 -21 26 -21 54
0 69 72 89 94 26z"/>
<path d="M6861 631 c-8 -5 -11 -38 -9 -107 3 -94 4 -99 26 -102 21 -3 22 0 22
60 0 69 18 108 50 108 28 0 40 -31 40 -105 0 -63 1 -66 23 -63 21 3 22 8 25
89 3 84 2 88 -24 108 -31 25 -49 26 -86 7 -16 -8 -28 -11 -28 -6 0 12 -25 19
-39 11z"/>
<path d="M7118 625 c-36 -20 -48 -44 -48 -94 0 -79 33 -111 114 -111 32 0 48
6 64 23 43 46 15 65 -37 26 -23 -17 -33 -19 -50 -10 -11 6 -25 20 -31 31 -10
19 -7 20 49 20 78 0 91 6 91 41 0 66 -89 109 -152 74z m86 -47 c20 -29 12 -38
-34 -38 -21 0 -41 4 -44 8 -9 14 24 52 44 52 10 0 26 -10 34 -22z"/>
<path d="M7840 625 c-10 -12 -5 -34 25 -107 30 -75 35 -96 26 -115 -7 -15 -19
-23 -36 -23 -18 0 -25 -5 -25 -20 0 -16 7 -20 38 -20 21 0 46 6 55 12 16 13
107 237 107 263 0 21 -20 29 -36 14 -7 -8 -24 -43 -38 -79 l-24 -65 -12 30
c-6 17 -18 49 -27 72 -17 46 -35 59 -53 38z"/>
<path d="M8811 626 c-8 -9 -11 -47 -9 -107 3 -93 3 -94 28 -94 24 0 25 3 30
72 3 39 9 75 13 80 5 4 23 8 40 8 39 0 49 28 16 45 -16 9 -28 9 -47 1 -17 -8
-28 -9 -36 -1 -14 14 -21 13 -35 -4z"/>
<path d="M8998 625 c-37 -21 -48 -44 -48 -103 0 -70 33 -102 105 -102 42 0 56
5 74 24 22 23 22 46 0 46 -5 0 -23 -10 -39 -22 l-30 -22 -27 20 c-46 35 -41
44 25 44 79 0 92 6 92 41 0 66 -89 109 -152 74z m86 -47 c20 -29 12 -38 -34
-38 -21 0 -41 4 -44 8 -9 14 24 52 44 52 10 0 26 -10 34 -22z"/>
<path d="M9225 626 c-61 -27 -76 -127 -26 -177 25 -24 38 -29 78 -29 54 0 93
21 93 51 0 24 -10 24 -52 -1 -28 -16 -37 -17 -58 -7 -14 7 -26 20 -28 30 -3
15 5 17 61 17 80 0 94 12 77 66 -19 55 -82 77 -145 50z m79 -42 c30 -29 20
-44 -29 -44 -32 0 -45 4 -45 14 0 18 27 46 45 46 7 0 21 -7 29 -16z"/>
<path d="M9413 633 c-10 -4 -13 -43 -13 -150 0 -144 0 -144 23 -141 18 2 23
11 27 50 4 39 8 46 20 38 8 -5 31 -10 51 -10 93 0 124 161 38 205 -35 19 -47
19 -81 1 -16 -8 -28 -11 -28 -6 0 11 -22 18 -37 13z m125 -55 c28 -34 13 -105
-23 -114 -31 -8 -52 8 -60 47 -13 56 50 106 83 67z"/>
<path d="M9653 633 c-9 -3 -13 -35 -13 -110 0 -103 0 -104 23 -101 21 3 22 8
25 104 3 103 -2 118 -35 107z"/>
<path d="M10103 625 c-40 -17 -53 -42 -53 -103 0 -68 33 -102 100 -102 53 0
100 28 100 60 0 32 -20 34 -50 5 -34 -33 -69 -30 -89 7 -18 32 -7 73 25 95 19
12 25 11 53 -13 45 -38 82 -17 47 28 -14 19 -58 38 -84 38 -9 -1 -31 -7 -49
-15z"/>
<path d="M10324 624 c-62 -30 -75 -125 -25 -175 25 -24 38 -29 79 -29 69 0
102 33 102 102 0 62 -13 86 -55 104 -43 18 -62 17 -101 -2z m86 -44 c38 -38
15 -120 -34 -120 -32 0 -50 25 -50 67 0 25 7 41 23 54 29 24 36 24 61 -1z"/>
<path d="M10523 633 c-9 -3 -13 -35 -13 -109 l0 -104 25 0 c24 0 25 3 25 59 0
80 13 113 43 109 20 -3 22 -9 25 -63 3 -91 9 -107 35 -103 20 3 22 10 27 75 5
76 16 97 46 91 16 -3 20 -15 24 -83 5 -77 6 -80 30 -80 24 0 25 2 28 83 3 76
1 84 -22 107 -28 28 -49 31 -85 11 -20 -11 -28 -11 -52 1 -28 14 -74 9 -85 -9
-4 -5 -13 -3 -22 5 -10 8 -23 12 -29 10z"/>
<path d="M8518 539 c-72 -37 -156 -52 -251 -45 l-88 6 18 -31 c36 -63 119 -90
214 -70 83 18 156 88 147 141 -3 18 -4 18 -40 -1z"/>
<path d="M9965 467 c-10 -8 -14 -19 -9 -30 9 -25 48 -18 52 9 4 26 -20 37 -43
21z"/>
</g>
</svg>
